<svg xmlns="http://www.w3.org/2000/svg" viewBox="0 0 459.44 378.45"><defs><style></style></defs><g id="Layer_2" data-name="Layer 2"><g id="Icons"><path class="cls-1" d="M129,378.45A128.79,128.79,0,0,1,40,343,126.26,126.26,0,0,1,.06,253.38c-.69-32.55,4.28-60.24,15.21-84.65,9.88-22.07,24.65-41.92,46.48-62.49L164.8,7.11a25.28,25.28,0,0,1,35.18,0h0a61.23,61.23,0,0,1,3,85.39l-11.91,13.23,189.49-4.05a43.47,43.47,0,0,1,29,10.34,38.65,38.65,0,0,1,13.55,28.76A39.82,39.82,0,0,1,414.88,166a46,46,0,0,1,28.7,10.8A40.69,40.69,0,0,1,458,207.26a42.11,42.11,0,0,1-16.57,34.39,39.3,39.3,0,0,1,18,32.77,40,40,0,0,1-39.14,40.85l-25.58.54a35.78,35.78,0,0,1,7.21,20.84c.43,20.18-15.54,36.33-36.35,36.77l-233.78,5ZM182.38,15a10.32,10.32,0,0,0-7.18,2.91L72.1,117.11c-41.76,39.32-58.26,78.69-57,136a111.34,111.34,0,0,0,35.25,79.08,114,114,0,0,0,81.16,31.28l233.78-5c10.72-.23,22-7.83,21.68-21.46a21,21,0,0,0-21.43-20.53h0L254,318.82a7.5,7.5,0,0,1-.32-15L420,300.27a25,25,0,0,0,24.47-25.53,24.72,24.72,0,0,0-7.79-17.89,25.34,25.34,0,0,0-17.85-6.57l-2,0h-.06l-164.12,3.51a7.5,7.5,0,0,1-.32-15l164.1-3.51h.06A27.2,27.2,0,0,0,443,207.58c-.36-17-15.33-26.87-29.6-26.55l-29.37.63h0L251.14,184.5a7.5,7.5,0,0,1-.32-15l132.89-2.84h0a25,25,0,0,0,24.46-25.53,23.55,23.55,0,0,0-8.36-17.73,28.16,28.16,0,0,0-18.91-6.7L181.57,121l1.25,58.37a85.59,85.59,0,0,1-28.3,65.45,7.5,7.5,0,1,1-10-11.14,70.62,70.62,0,0,0,23.34-54l-1.4-65.81v-.37a7.46,7.46,0,0,1,1.93-4.87l23.5-26.1a46.29,46.29,0,0,0-2.28-64.56h0A10.32,10.32,0,0,0,182.38,15Z"/></g></g></svg>