<svg xmlns="http://www.w3.org/2000/svg" viewBox="0 0 494.03 288.82"><defs><style></style></defs><g id="Layer_2" data-name="Layer 2"><g id="Icons"><path class="cls-1" d="M229.47,288.82a42.73,42.73,0,0,1-4.51-.24L181.89,284l-.19,0-52.38-5.56A146.67,146.67,0,0,1,36,231.1C11.39,204-1.35,169.41.11,133.76A140.24,140.24,0,0,1,48.24,33.64C77.76,8.17,116.7-3.46,157.89.9H158l.26,0c84.12,8.93,84.22,8.93,171.14,5.83,28.81-1,68.26-2.43,123.48-3.94a39.85,39.85,0,0,1,2.67,79.66L316,87.93l134.81,34.46a39.85,39.85,0,0,1-19.39,77.31L309.33,169.14a42,42,0,0,1-45,52.29l-1.67-.18a41.83,41.83,0,0,1,8.54,29.61v0h0v.1h0c0,.06,0,.11,0,.16v.11a42,42,0,0,1-41.65,37.54Zm-46.35-17.75,43.21,4.59a29,29,0,0,0,31.86-25.75v0c0-.05,0-.1,0-.15s0-.1,0-.16v-.14h0a29,29,0,0,0-25.79-31.35l-27.62-2.93h0l-14.72-1.57a25.76,25.76,0,0,1-3.5-.12l-.94-.11a29,29,0,0,0-28.11,25.91A29,29,0,0,0,183.12,271.07ZM141.09,13c-31.78,0-61.28,10.58-84.35,30.49a127.16,127.16,0,0,0-43.64,90.8C10.38,200.58,62,258.22,130.7,265.51l22.39,2.37a41.93,41.93,0,0,1,11.45-61.47,57.47,57.47,0,0,1-29-56.08l1.61-15.12A65.69,65.69,0,0,1,82,156l-17.41-1.85a6.5,6.5,0,1,1,1.37-12.92l17.41,1.84a52.74,52.74,0,0,0,58-46.84v-.06h0V96a6.48,6.48,0,0,1,7.11-5.49,4.45,4.45,0,0,1,.73.12,6.49,6.49,0,0,1,5.09,6.34v.21c0,.16,0,.32,0,.48L148.5,151.7a44.41,44.41,0,0,0,37.92,48.61c1.3,0,2.61.08,3.93.2A11.87,11.87,0,0,0,201,190l5.57-52.47v-.12l5.79-54.57a62.77,62.77,0,0,0-55.51-68.95l-.23,0A148,148,0,0,0,141.09,13Zm92.6,192.11h.13l31.84,3.38a29,29,0,0,0,31.86-25.7v-.09h0v-.1h0a29,29,0,0,0-25.76-31.69l-53-5.63-4.89,46.08a24.74,24.74,0,0,1-4.08,11.23Zm68.05-51.27,132.81,33.25a26.85,26.85,0,0,0,13-52.1L269.51,89.47a6.5,6.5,0,0,1,1.36-12.79l184.18-7.19a26.85,26.85,0,1,0-1.79-53.68h0c-55.18,1.52-94.6,2.92-123.39,4-70.5,2.5-84.48,3-131.22-1.57a75.72,75.72,0,0,1,26.66,66l-5.11,48.17,53,5.62A41.86,41.86,0,0,1,301.74,153.84ZM453,9.32h0Z"/></g></g></svg>