<svg xmlns="http://www.w3.org/2000/svg" viewBox="0 0 459.44 378.45"><defs><style>.cls-1{fill:#6b29d9;}</style></defs><g id="Layer_2" data-name="Layer 2"><g id="Icons"><path class="cls-1" d="M330.49,378.45c-.95,0-1.89,0-2.84,0l-233.77-5c-20.82-.44-36.79-16.59-36.36-36.77a35.79,35.79,0,0,1,7.22-20.84l-25.59-.54A40,40,0,0,1,18,241.65,42.17,42.17,0,0,1,1.44,207.26a40.73,40.73,0,0,1,14.42-30.43A46,46,0,0,1,44.57,166a39.7,39.7,0,0,1-8.29-25.22c.46-21.75,19-39.11,41.64-39.11h.94l189.49,4.05-11.9-13.23a61.22,61.22,0,0,1,3-85.39,25.28,25.28,0,0,1,35.18,0l103.1,99.19c21.79,20.51,36.56,40.36,46.43,62.43,10.93,24.41,15.9,52.1,15.21,84.65A126.26,126.26,0,0,1,419.43,343,128.78,128.78,0,0,1,330.49,378.45Zm-237-62a21,21,0,0,0-21,20.54c-.29,13.63,11,21.23,21.69,21.46l233.77,5a113.92,113.92,0,0,0,81.16-31.28,111.36,111.36,0,0,0,35.25-79.08c1.23-57.26-15.28-96.63-57-135.9L284.24,17.92a10.33,10.33,0,0,0-14.37,0,46.32,46.32,0,0,0-2.28,64.57h0l23.5,26.1a7.48,7.48,0,0,1,1.94,4.91c0,.11,0,.21,0,.32l-1.4,65.82a70.62,70.62,0,0,0,23.34,54,7.5,7.5,0,0,1-10,11.14,85.59,85.59,0,0,1-28.3-65.45L277.87,121,78.54,116.7c-13.17-.28-26.93,8.78-27.27,24.43a25,25,0,0,0,24.46,25.53h0l132.88,2.84a7.5,7.5,0,0,1-.16,15h-.16L75.41,181.66h0L46,181c-14.29-.34-29.23,9.54-29.6,26.55A27.21,27.21,0,0,0,43,235.32h0l164.1,3.51a7.5,7.5,0,0,1-.16,15h-.16L42.7,250.32h-.06l-2,0a25.31,25.31,0,0,0-17.85,6.57,25.15,25.15,0,0,0,16.68,43.42l166.28,3.55a7.5,7.5,0,0,1-.16,15h-.16L94,316.44h-.48Z"/></g></g></svg>