<svg xmlns="http://www.w3.org/2000/svg" viewBox="0 0 332.61 309.44"><defs><style>.cls-1{fill:#6b29d9;}</style></defs><g id="Layer_2" data-name="Layer 2"><g id="Icons"><path class="cls-1" d="M199.29,309.44H88.19a41.33,41.33,0,0,1-41.28-40.79v-.49a41.09,41.09,0,0,1,10.85-27.87H43.52a43.51,43.51,0,0,1-23.05-80.42A43.89,43.89,0,0,1,20,85.92,38.26,38.26,0,0,1,41.09,15.73h88.73A69.79,69.79,0,0,1,173.79,0h.2c87.46,0,158.62,71.16,158.62,158.62v17.5C332.61,249.63,272.8,309.44,199.29,309.44ZM163.88,296h35.41a120,120,0,0,0,119.9-119.9v-17.5c0-80.06-65.14-145.2-145.2-145.2h-.16a56.44,56.44,0,0,0-56.3,56.46V221.21a5.67,5.67,0,0,0,5.66,5.66h7.74A48.17,48.17,0,0,0,179,178.75V103.67a6.71,6.71,0,0,1,13.42,0v.86a54.27,54.27,0,0,0,54.21,54.21h18a6.71,6.71,0,0,1,0,13.42h-18a67.59,67.59,0,0,1-54.21-27.24v33.83a61.62,61.62,0,0,1-35.27,55.65A41.23,41.23,0,0,1,163.88,296Zm-75.69,0h45.25a27.87,27.87,0,1,0,0-55.73H88.19a27.9,27.9,0,0,0-27.86,27.87v.29A27.89,27.89,0,0,0,88.19,296ZM43.52,166.67a30.1,30.1,0,0,0,0,60.2H105a19.24,19.24,0,0,1-.85-5.66V166.67Zm.4-13.42h60.19v-61H43.92a30.5,30.5,0,0,0,0,61Zm0-74.41h60.19v-9a69.5,69.5,0,0,1,13.13-40.73H41.09a24.85,24.85,0,0,0,0,49.69Z"/></g></g></svg>