<svg xmlns="http://www.w3.org/2000/svg" viewBox="0 0 494.03 288.82"><defs><style>.cls-1{fill:#6b29d9;}</style></defs><g id="Layer_2" data-name="Layer 2"><g id="Icons"><path class="cls-1" d="M264.56,288.82h0a41.6,41.6,0,0,1-23.4-7.18c-1-.67-2-1.39-2.9-2.15a42,42,0,0,1-6.88-58.24l-1.65.18a42,42,0,0,1-46-36.32c0-.33-.08-.66-.11-1v0h0v0h0v0h0v0h0a41.91,41.91,0,0,1,1.11-14.84l-122,30.56a39.85,39.85,0,1,1-19.36-77.32L178.06,87.93,38.47,82.48A39.85,39.85,0,0,1,41.21,2.82c55.18,1.51,94.64,2.92,123.44,3.94,86.93,3.1,87,3.1,171.16-5.83l.25,0h.07c41.2-4.35,80.13,7.28,109.65,32.75a140.2,140.2,0,0,1,48.13,100.12C495.38,169.41,482.64,204,458,231.1a146.67,146.67,0,0,1-93.34,47.33L312.31,284l-.18,0-43.06,4.57A42.87,42.87,0,0,1,264.56,288.82ZM245.4,268.5c.33.3.68.59,1,.88a28.74,28.74,0,0,0,21.26,6.27l43.22-4.58a29,29,0,0,0-2.53-57.75l-.92.11a25.85,25.85,0,0,1-3.51.12l-14.73,1.57h0l-27.61,2.93a29,29,0,0,0-25.91,28.76,27,27,0,0,0,.17,3.1A28.68,28.68,0,0,0,245.4,268.5Zm84.06-62.08a41.89,41.89,0,0,1,11.47,61.46l22.4-2.37c68.67-7.29,120.32-64.93,117.59-131.22a127.13,127.13,0,0,0-43.63-90.8C410.5,20.37,375.05,9.84,337.43,13.83l-.23,0a62.79,62.79,0,0,0-55.51,69l5.79,54.57v.11L293.06,190a11.87,11.87,0,0,0,10.62,10.54c1.31-.13,2.62-.19,3.91-.19a44.42,44.42,0,0,0,37.93-48.62l-5.74-54.09a6.5,6.5,0,0,1,5.78-7.15,7.21,7.21,0,0,1,.79,0,6.53,6.53,0,0,1,3.06.82h0a6.5,6.5,0,0,1,3.28,5v0a52.69,52.69,0,0,0,58,46.82l17.42-1.85a6.5,6.5,0,0,1,1.37,12.93L412.06,156a65.3,65.3,0,0,1-48.24-14.23,68.37,68.37,0,0,1-7-6.51l1.6,15.06A57.45,57.45,0,0,1,329.46,206.42ZM201.65,163l-.19.29a29,29,0,0,0,26.9,45.23l31.85-3.38h.13l23.88-2.54a24.55,24.55,0,0,1-4.09-11.23l-4.89-46.07-53,5.63a28.77,28.77,0,0,0-19.47,10.59C202.38,162,202,162.48,201.65,163ZM6.52,41.52l6.5.22A26.83,26.83,0,0,0,38.94,69.49l184.22,7.18a6.5,6.5,0,0,1,1.36,12.8L46.46,135a26.86,26.86,0,1,0,13,52.11l132.78-33.25.41-.52A41.65,41.65,0,0,1,220.88,138l53-5.63-5.11-48.16a75.7,75.7,0,0,1,26.66-66c-46.74,4.57-60.72,4.07-131.23,1.56-28.78-1-68.21-2.42-123.38-3.94A26.9,26.9,0,0,0,13,41.74Z"/></g></g></svg>