<svg xmlns="http://www.w3.org/2000/svg" viewBox="0 0 128.26 119.48"><defs><style>.cls-1{opacity:0.2;}.cls-2{fill:#6b29d9;}.cls-3{opacity:0.25;}.cls-4{opacity:0.3;}</style></defs><g id="Layer_2" data-name="Layer 2"><g id="Icons"><g class="cls-1"><path class="cls-2" d="M93.74,119.48H51.63A51.69,51.69,0,0,1,0,67.85V61.22A61.29,61.29,0,0,1,61.22,0h.08a27.5,27.5,0,0,1,17,6H111.6a15.6,15.6,0,0,1,9.84,27.69,17.73,17.73,0,0,1-.12,28,17.58,17.58,0,0,1-10.64,31.57h-3.14a16.73,16.73,0,0,1,2.94,9.48v.34A16.76,16.76,0,0,1,93.74,119.48Zm-17.15-7.27H93.74a9.48,9.48,0,0,0,9.47-9.34v-.13a9.49,9.49,0,0,0-9.47-9.48H76.59a9.48,9.48,0,1,0,0,18.95ZM61.22,7.27a54,54,0,0,0-53.95,54v6.63a44.41,44.41,0,0,0,44.36,44.36H62.79a16.72,16.72,0,0,1,2.8-22.08A24.41,24.41,0,0,1,53.13,68.85V59a26.64,26.64,0,0,1-19.46,8.43H26.84a3.64,3.64,0,1,1,0-7.27h6.83A19.48,19.48,0,0,0,53.13,40.71v-.32a3.63,3.63,0,1,1,7.26,0V68.85A17.18,17.18,0,0,0,77.54,86h2.94a1.06,1.06,0,0,0,1-1.06V27.58A20.29,20.29,0,0,0,61.28,7.27h-.06ZM88.73,86h22a10.32,10.32,0,0,0,0-20.64H88.8V84.94A7.45,7.45,0,0,1,88.73,86Zm.07-27.91h21.72a10.47,10.47,0,1,0,0-20.94H88.8Zm21.72-28.21h1.08a8.33,8.33,0,0,0,0-16.65H84.76a27.41,27.41,0,0,1,4,14.35v2.3Z"/></g><g class="cls-3"><path class="cls-2" d="M93.74,118.93H51.63A51.15,51.15,0,0,1,.54,67.85V61.22A60.74,60.74,0,0,1,61.22.55s0,0,0,0a0,0,0,0,1,0,0h0a26.87,26.87,0,0,1,16.85,6H111.6a15,15,0,0,1,8.94,27.14,17.18,17.18,0,0,1-.14,28,17,17,0,0,1-9.72,31h-4.22a16.17,16.17,0,0,1,3.48,10c0,.12,0,.23,0,.35A16.21,16.21,0,0,1,93.74,118.93Zm-17.15-6.17H93.74a10,10,0,0,0,10-9.79v-.23a10,10,0,0,0-10-10H76.59a10,10,0,0,0,0,20ZM61.22,6.72a54.56,54.56,0,0,0-54.5,54.5v6.63a45,45,0,0,0,44.91,44.91H63.87A16.17,16.17,0,0,1,66.55,90,23.9,23.9,0,0,1,53.67,68.85V57.58a26.14,26.14,0,0,1-20,9.31H26.84a3.09,3.09,0,1,1,0-6.17h6.83a20,20,0,0,0,20-20v-.32a3.09,3.09,0,0,1,6.18,0V68.85A17.7,17.7,0,0,0,77.54,86.54h2.94a1.6,1.6,0,0,0,1.6-1.6V27.58A20.86,20.86,0,0,0,61.28,6.72h-.06ZM88.09,86.54h22.59a10.86,10.86,0,0,0,0-21.72H88.25V84.94A7.62,7.62,0,0,1,88.09,86.54Zm.16-27.9h22.27a11,11,0,1,0,0-22H88.25Zm22.27-28.21h1.08a8.88,8.88,0,0,0,0-17.75H83.77a26.92,26.92,0,0,1,4.48,14.9v2.85Z"/></g><g class="cls-4"><path class="cls-2" d="M93.74,117.66H51.63A49.86,49.86,0,0,1,1.82,67.85V61.22a59.46,59.46,0,0,1,59.4-59.4h.07a25.72,25.72,0,0,1,16.41,6h33.9a13.78,13.78,0,0,1,6.57,25.88,15.91,15.91,0,0,1-.21,28,15.76,15.76,0,0,1-7.28,29.75h-7.19a14.88,14.88,0,0,1,5.17,11.29v.3A14.94,14.94,0,0,1,93.74,117.66ZM76.59,114H93.74A11.31,11.31,0,0,0,105,102.9v-.16A11.3,11.3,0,0,0,93.74,91.45H76.59a11.29,11.29,0,0,0,0,22.58ZM61.22,5.45A55.84,55.84,0,0,0,5.45,61.22v6.63A46.24,46.24,0,0,0,51.63,114H66.84a14.91,14.91,0,0,1,2.28-24.21,22.63,22.63,0,0,1-14.18-21V53.66a24.92,24.92,0,0,1-21.27,12H26.84a1.82,1.82,0,1,1,0-3.63h6.83A21.3,21.3,0,0,0,54.94,40.71v-.32a1.82,1.82,0,1,1,3.63,0V68.85a19,19,0,0,0,19,19h2.94a2.87,2.87,0,0,0,2.87-2.87V27.58A22.13,22.13,0,0,0,61.28,5.45h-.06ZM86.31,87.81h24.37a12.14,12.14,0,0,0,0-24.27H87v21.4A6.41,6.41,0,0,1,86.31,87.81ZM87,59.91h23.54a12.29,12.29,0,1,0,0-24.58H87ZM110.52,31.7h1.08a10.15,10.15,0,0,0,0-20.29H81.26A25.63,25.63,0,0,1,87,27.58V31.7Z"/></g><path class="cls-2" d="M93.74,118.39H51.63A50.59,50.59,0,0,1,1.09,67.85V61.22A60.19,60.19,0,0,1,61.22,1.09h.08A26.41,26.41,0,0,1,78,7.05H111.6a14.5,14.5,0,0,1,8,26.61,16.63,16.63,0,0,1-.17,28,16.49,16.49,0,0,1-8.73,30.48h-5.4a15.62,15.62,0,0,1,4.11,10.57V103A15.67,15.67,0,0,1,93.74,118.39ZM76.59,113.3H93.74a10.57,10.57,0,0,0,10.56-10.37v-.19A10.57,10.57,0,0,0,93.74,92.17H76.59a10.57,10.57,0,1,0,0,21.13ZM61.22,6.18a55.1,55.1,0,0,0-55,55v6.63A45.5,45.5,0,0,0,51.63,113.3H65.05a15.63,15.63,0,0,1,2.54-23.36A23.35,23.35,0,0,1,54.22,68.85V56A25.6,25.6,0,0,1,33.67,66.35H26.84a2.55,2.55,0,1,1,0-5.09h6.83A20.57,20.57,0,0,0,54.22,40.71v-.32a2.54,2.54,0,1,1,5.08,0V68.85A18.26,18.26,0,0,0,77.54,87.09h2.94a2.14,2.14,0,0,0,2.14-2.15V27.58a21.42,21.42,0,0,0-13.89-20,21.1,21.1,0,0,0-7.45-1.36h-.06ZM87.38,87.09h23.3a11.41,11.41,0,0,0,0-22.82h-23V84.94A7.27,7.27,0,0,1,87.38,87.09Zm.33-27.91h22.81a11.56,11.56,0,1,0,0-23.12H87.71ZM110.52,31h1.08a9.42,9.42,0,0,0,0-18.83H82.73a26.35,26.35,0,0,1,5,15.44V31Z"/><path class="cls-2" d="M93.74,117.84H51.63a50,50,0,0,1-50-50V61.22A59.64,59.64,0,0,1,61.22,1.64h.05s0,0,0,0h0a25.81,25.81,0,0,1,16.47,6H111.6a14,14,0,0,1,6.94,26.06,16.1,16.1,0,0,1-.2,28,15.94,15.94,0,0,1-7.66,29.93H104a15.1,15.1,0,0,1,4.88,11.11c0,.1,0,.2,0,.3A15.12,15.12,0,0,1,93.74,117.84Zm-17.15-4H93.74a11.13,11.13,0,0,0,11.11-10.95v-.16A11.12,11.12,0,0,0,93.74,91.63H76.59a11.11,11.11,0,1,0,0,22.22ZM61.22,5.63A55.66,55.66,0,0,0,5.63,61.22v6.63a46.06,46.06,0,0,0,46,46H66.36a15.09,15.09,0,0,1,2.36-24,22.8,22.8,0,0,1-14-21V54.29A25.1,25.1,0,0,1,33.67,65.8H26.84a2,2,0,1,1,0-4h6.83a21.12,21.12,0,0,0,21.09-21.1v-.32a2,2,0,0,1,4,0V68.85A18.8,18.8,0,0,0,77.54,87.63h2.94a2.69,2.69,0,0,0,2.69-2.69V27.58A22,22,0,0,0,61.3,5.63h-.08Zm25.38,82h24.08a12,12,0,0,0,0-23.9H87.16V84.94A6.68,6.68,0,0,1,86.6,87.63Zm.56-27.9h23.36a12.11,12.11,0,1,0,0-24.21H87.16Zm23.36-28.21h1.08a10,10,0,0,0,0-19.93h-30a25.83,25.83,0,0,1,5.52,16v3.94Z"/><path class="cls-2" d="M93.74,117.3H51.63A49.5,49.5,0,0,1,2.18,67.85V61.22a59.1,59.1,0,0,1,59-59h.07a25.17,25.17,0,0,1,8.88,1.63,25.68,25.68,0,0,1,7.4,4.33h34a13.42,13.42,0,0,1,5.78,25.52,15.56,15.56,0,0,1-.23,28,15.4,15.4,0,0,1-6.47,29.38h-8.22a14.57,14.57,0,0,1,5.84,11.66v.14A14.58,14.58,0,0,1,93.74,117.3Zm-17.15-2.91H93.74a11.66,11.66,0,0,0,11.65-11.53v-.12A11.66,11.66,0,0,0,93.74,91.08H76.59a11.66,11.66,0,1,0,0,23.31ZM61.22,5.09A56.19,56.19,0,0,0,5.09,61.22v6.63a46.6,46.6,0,0,0,46.54,46.54H67.87A14.55,14.55,0,0,1,70,89.76,22.26,22.26,0,0,1,55.31,68.85V52.29a24.58,24.58,0,0,1-21.64,13H26.84a1.46,1.46,0,1,1,0-2.91h6.83A21.67,21.67,0,0,0,55.31,40.71v-.32a1.45,1.45,0,1,1,2.9,0V68.85A19.35,19.35,0,0,0,77.54,88.18h2.94a3.24,3.24,0,0,0,3.23-3.24V27.58A22.48,22.48,0,0,0,61.28,5.09h-.06ZM85.69,88.18h25a12.5,12.5,0,0,0,0-25H86.62V84.94A6.07,6.07,0,0,1,85.69,88.18Zm.93-27.91h23.9a12.65,12.65,0,1,0,0-25.3H86.62Zm23.9-28.21h1.08a10.51,10.51,0,0,0,0-21H80.49a25.29,25.29,0,0,1,6.13,16.53v4.48Z"/><path class="cls-2" d="M93.74,116.75H51.63A49,49,0,0,1,2.72,67.85V61.22A58.55,58.55,0,0,1,61.22,2.73h0A24.49,24.49,0,0,1,70,4.32a24.89,24.89,0,0,1,7.4,4.37H111.6a12.87,12.87,0,0,1,4.41,25,15,15,0,0,1-.28,28.05,14.86,14.86,0,0,1-5,28.84h-10a14,14,0,0,1,7.12,12.2v0A14,14,0,0,1,93.74,116.75Zm-17.15-1.81H93.74a12.21,12.21,0,0,0,12.2-12v-.21a12.21,12.21,0,0,0-12.2-12.2H76.59a12.2,12.2,0,0,0,0,24.4ZM61.22,4.54A56.75,56.75,0,0,0,4.54,61.22v6.63a47.14,47.14,0,0,0,47.09,47.09H69.69a14,14,0,0,1,1.8-25.26A21.73,21.73,0,0,1,55.85,68.85v-19A24,24,0,0,1,33.67,64.71H26.84a.91.91,0,1,1,0-1.81h6.83A22.21,22.21,0,0,0,55.85,40.71v-.32a.91.91,0,0,1,1.82,0V68.85A19.89,19.89,0,0,0,77.54,88.72h2.94a3.78,3.78,0,0,0,3.78-3.78V27.58a23,23,0,0,0-23-23h-.07ZM84.6,88.72h26.08a13,13,0,0,0,0-26.08H86.07v22.3A5.57,5.57,0,0,1,84.6,88.72Zm1.47-27.9h24.45a13.2,13.2,0,1,0,0-26.39H86.07Zm24.45-28.21h1.08a11.06,11.06,0,0,0,0-22.11H79.26a24.77,24.77,0,0,1,6.81,17.08v5Z"/><path class="cls-2" d="M93.74,116.21H51.63A48.41,48.41,0,0,1,3.27,67.85V61.22a58,58,0,0,1,58-57.95h.07a24.33,24.33,0,0,1,15.87,6H111.6a12.32,12.32,0,0,1,2.55,24.38,14.47,14.47,0,0,1-.33,28.1A14.31,14.31,0,0,1,110.68,90H98.11a13.5,13.5,0,0,1,9.1,12.75v.17A13.49,13.49,0,0,1,93.74,116.21Zm-17.15-.73H93.74a12.75,12.75,0,0,0,12.74-12.54v-.2A12.76,12.76,0,0,0,93.74,90H76.59a12.75,12.75,0,1,0,0,25.49ZM61.22,4A57.29,57.29,0,0,0,4,61.22v6.63a47.68,47.68,0,0,0,47.63,47.63H72.22a13.47,13.47,0,0,1,1.32-25.86A21.19,21.19,0,0,1,56.4,68.85V46.52A23.5,23.5,0,0,1,33.67,64.17H26.84a.36.36,0,0,1-.37-.36.37.37,0,0,1,.37-.37h6.83A22.75,22.75,0,0,0,56.4,40.71v-.32a.36.36,0,1,1,.72,0V68.85A20.44,20.44,0,0,0,77.54,89.27h2.94a4.33,4.33,0,0,0,4.32-4.33V27.58A23.55,23.55,0,0,0,61.29,4h-.07ZM83.08,89.27h27.6a13.59,13.59,0,0,0,0-27.18H85.53V84.94A5.06,5.06,0,0,1,83.08,89.27Zm2.45-27.91h25a13.74,13.74,0,1,0,0-27.48h-25Zm25-28.21h1.08a11.6,11.6,0,0,0,0-23.19H78a24.22,24.22,0,0,1,7.58,17.62v5.57Z"/></g></g></svg>